<svg xmlns="http://www.w3.org/2000/svg" version="1.1" xmlns:xlink="http://www.w3.org/1999/xlink" xmlns:svgjs="http://svgjs.dev/svgjs" viewBox="0 0 5.134356929322392 4.045559810705535"><g transform="matrix(1,0,0,1,2.5683406739609325,3.8538027123888954)"><rect width="5.134356929322392" height="5.134356929322392" x="-2.5683406739609325" y="-4.398201271697324" fill="#fffdfa"></rect><g transform="matrix(1,0,0,1,0,0)"><path d=" M -1.7583613864073384 -1.867127639781822 Q -1.702850202136554 -1.9056602029051724 -1.6364194127859462 -1.891136077242841 Q -1.5856193974001873 -1.880029392912823 -1.5509963182405464 -1.841750908231409 Q -1.5163732390809057 -1.803472423549995 -1.5037588908605184 -1.7464625277513286 Q -1.4911445426401313 -1.689452631952662 -1.5050278980526541 -1.6259526127204635 Q -1.5110084203842022 -1.598598758281978 -1.5216284335003163 -1.564070287110877 Q -1.5255956180388934 -1.5506069499749036 -1.5309511381187229 -1.5307936109157105 Q -1.5363066581985523 -1.5109802718565175 -1.5416464102802918 -1.4865571875364412 L -1.556261562986168 -1.4150281912385487 Q -1.5595564412787566 -1.395276133699218 -1.5668185041099223 -1.3620607390239143 Q -1.5674592743597309 -1.3591299689055052 -1.5733208145965494 -1.3604115094051226 Q -1.5791823548333677 -1.3616930499047402 -1.5785415845835589 -1.3646238200231493 Q -1.5723474721687412 -1.3929545978344378 -1.574516699470114 -1.4087831938844664 Q -1.5766859267714872 -1.4246117899344948 -1.5894629801358793 -1.4340588480651235 Q -1.6022400335002713 -1.4435059061957523 -1.6305708113115598 -1.44970001861057 L -2.0828863329193736 -1.5485922271643853 Q -2.123917114577102 -1.5575630106617075 -2.140095841275717 -1.546769549566604 Q -2.1562745679743327 -1.5359760884715008 -2.165458941554925 -1.4939683834409694 Q -2.1658861217214636 -1.4920145366953632 -2.171747661958282 -1.4932960771949808 Q -2.1776092021951 -1.4945776176945982 -2.1771820220285614 -1.4965314644402044 L -2.1648848242424705 -1.5480948131154966 Q -2.1531058336664635 -1.592606108097898 -2.147338901418185 -1.6189830391635804 Q -2.1413583790866366 -1.646336893602066 -2.1378814467069587 -1.6762853650359664 Q -2.136722469247066 -1.6862681888472664 -2.1334275909544775 -1.706020246386597 Q -2.1301327126618887 -1.7257723039259276 -2.126928861412845 -1.7404261545179733 Q -2.1074921638353135 -1.8293261814430513 -2.064574188369334 -1.8711238773353078 Q -2.0216562129033537 -1.9129215732275644 -1.9601100404167615 -1.899465397981581 Q -1.913217718522215 -1.8892130739846413 -1.8818457946058875 -1.8501099744938314 Q -1.8504738706895603 -1.8110068750030215 -1.8415833714007983 -1.7486694141757106 Q -1.8138725706781231 -1.8285950766584715 -1.7583613864073384 -1.867127639781822 M -2.1039955362581635 -1.6791129210577354 Q -2.0931565616412877 -1.6654832978327625 -2.057010396847575 -1.657580464751788 L -1.8713949560149945 -1.6169983489305682 L -1.8618744293114082 -1.6558616937594206 Q -1.8507677449813902 -1.7066617091451795 -1.8828872341891612 -1.7423455768311784 Q -1.915006723396932 -1.7780294445171776 -1.9745990491379182 -1.7910584395966218 Q -2.0302836813876923 -1.8032330743429879 -2.0644426729671217 -1.7851108974793641 Q -2.0986016645465515 -1.7669887206157404 -2.1086403984602216 -1.7210733220939969 Q -2.1148345108750393 -1.6927425442827082 -2.1039955362581635 -1.6791129210577354 M -1.6379632915812137 -1.771709880626414 Q -1.7131863912870489 -1.7881563170381716 -1.7650507761441605 -1.7616217059915895 Q -1.8169151610012724 -1.7350870949450077 -1.832934417246491 -1.6618178419847787 Q -1.8391285296613087 -1.63348706417349 -1.8420872548309029 -1.6105906464324806 L -1.606648721985367 -1.559115436364512 Q -1.5744102506828663 -1.552066963616616 -1.5584451140675204 -1.5618835013389163 Q -1.5424799774521747 -1.5717000390612168 -1.5330820137883132 -1.614684667464551 Q -1.5051017128799984 -1.7426616293017512 -1.6379632915812137 -1.771709880626414 M -1.2300369722656992 -2.343636325265329 Q -1.2284361875265954 -2.3461735458349784 -1.2234070942076278 -2.3447741815546306 Q -1.21837800088866 -2.3433748172742828 -1.219666640350915 -2.3394582616017154 L -1.2335378507209063 -2.2181463103237333 Q -1.233980749993278 -2.2136961597381317 -1.2366487245584508 -2.2094674587887155 Q -1.2467870279061073 -2.1933983951809353 -1.2701903768353775 -2.186289720276649 Q -1.2935937257646477 -2.1791810453723626 -1.3285305815409048 -2.18939946542974 L -1.330945369677066 -2.1199792320805395 Q -1.331729893650205 -2.0850023179494217 -1.3383491927773346 -2.061392259095925 Q -1.3449684919044642 -2.0377822002424284 -1.3583083647303278 -2.0166386954953484 Q -1.3791185663386754 -1.9836548280899042 -1.410218983152086 -1.97371681651655 Q -1.4413193999654967 -1.9637788049431957 -1.469228826231642 -1.9813874370733358 Q -1.4954467721180207 -1.9979288793774068 -1.5043829708630674 -2.027806033726324 Q -1.513319169608114 -2.0576831880752415 -1.5045707802943173 -2.0959123089703686 L -1.4658926959336904 -2.2677872803600163 L -1.56653577852979 -2.3312850750111274 Q -1.6181259301126645 -2.3638343647062348 -1.6484765918423256 -2.3682032698976623 Q -1.6788272535719868 -2.37257217508909 -1.6937679111369541 -2.3488914497723608 Q -1.7108429483540597 -2.3218277636960987 -1.695921191282069 -2.2911301878001993 Q -1.6809994342100785 -2.2604326119043 -1.6482770747956805 -2.2279634389189136 Q -1.6067851682056018 -2.1887789817002634 -1.6318641291182256 -2.1490291927757537 Q -1.6452040019440894 -2.127885688028674 -1.6635128805566302 -2.1222923916882994 Q -1.6818217591691709 -2.116699095347925 -1.7012737835364844 -2.12897177834772 Q -1.72664598923298 -2.144979625738756 -1.7332769959755048 -2.193503122619964 Q -1.7399080027180298 -2.242026619501172 -1.7284315513067696 -2.2986352854720726 Q -1.7169550998955092 -2.355243951442973 -1.6929433288089546 -2.3933022599877165 Q -1.6646627984181235 -2.4381264900515256 -1.624863500892265 -2.449670575829454 Q -1.5850642033664062 -2.461214661607383 -1.5385484929228308 -2.4318669413904828 L -1.3584058324777115 -2.318211224914124 Q -1.320347523932968 -2.294199453827569 -1.2974724804512614 -2.2892262872598748 Q -1.274597436969555 -2.2842531206921803 -1.262853059417324 -2.291623303587513 Q -1.251108681865093 -2.2989934864828454 -1.240436783604402 -2.3159082902805093 Q -1.2351008344740564 -2.324365692179341 -1.230258421901885 -2.341411249972528 L -1.2300369722656992 -2.343636325265329 M -1.3475797649907066 -2.196688402930898 Q -1.3644038731477077 -2.2037558907958705 -1.3830101573251379 -2.2154949788826306 L -1.4481321519461434 -2.256581787186291 L -1.4669576283908525 -2.166773093639231 Q -1.4773468607986135 -2.116572856090216 -1.4384428120639867 -2.0920274900906266 Q -1.4156078269371406 -2.077620427438694 -1.395562120124502 -2.0803443287551397 Q -1.3755164133118636 -2.0830682300715857 -1.3637773252251035 -2.101674514249016 Q -1.3552398066165507 -2.115206357287147 -1.352139511709948 -2.14635741138636 L -1.3475797649907066 -2.196688402930898 M -0.7411069418296183 -2.6739957472120435 Q -0.7374235752990119 -2.669259418359313 -0.7390023515832554 -2.6680316295157773 Q -0.7587370551363 -2.6526842689715844 -0.7704023835477726 -2.644879135208958 L -0.8120644613598729 -2.613746013419158 L -0.8588138554654118 -2.5761229599709727 Q -0.8700407831754707 -2.5661251555023354 -0.8897754867285153 -2.550777794958142 Q -0.8913542630127587 -2.5495500061146066 -0.8950376295433651 -2.5542863349673373 Q -0.8987209960739714 -2.559022663820068 -0.8971422197897279 -2.5602504526636034 Q -0.8789862925209269 -2.574370024364261 -0.8739863894881937 -2.5858591918564366 Q -0.8689864864554604 -2.5973483593486124 -0.8747304030026053 -2.611250065096449 Q -0.8804743195497502 -2.625151770844286 -0.8988911522027819 -2.648833415107939 L -1.0210561421345588 -2.805921655390173 Q -1.0787622177807248 -2.8801241407496203 -1.1222636436618276 -2.891265323196331 Q -1.165765069542931 -2.9024065056430417 -1.2036557003647763 -2.872939573398191 Q -1.2352312260496474 -2.8483837965274823 -1.2501872285174942 -2.81141667613406 Q -1.2651432309853412 -2.774449555740638 -1.261199626269447 -2.720510256692126 L -1.0899230825962523 -2.50027096504015 Q -1.0715062499432206 -2.4765893207764966 -1.0598419223301625 -2.467291823191918 Q -1.0481775947171044 -2.4579943256073395 -1.0362056526942192 -2.45970388818317 Q -1.0242337106713342 -2.461413450759 -1.006867171544655 -2.47491912803789 Q -1.0052883952604115 -2.4761469168814254 -1.0016050287298053 -2.4714105880286947 Q -0.9979216621991989 -2.466674259175964 -0.9995004384834424 -2.4654464703324286 Q -1.022392694604974 -2.4476435321011647 -1.036426187442812 -2.4379967150732353 L -1.0828245941076429 -2.4031802267528293 L -1.125627047502573 -2.3686266454134826 Q -1.1376433633547536 -2.358014946523077 -1.1605356194762853 -2.340212008291813 Q -1.1621143957605289 -2.3389842194482777 -1.165797762291135 -2.3437205483010084 Q -1.1694811288217415 -2.348456877153739 -1.1679023525374979 -2.3496846659972745 Q -1.149746425268697 -2.363804237697932 -1.1437379337431353 -2.3748109642588697 Q -1.1377294422175734 -2.3858176908198074 -1.1434733587647181 -2.399719396567644 Q -1.149217275311863 -2.413621102315481 -1.1676341079648949 -2.4373027465791344 L -1.355485801025818 -2.678855518068399 Q -1.3739026336788496 -2.702537162332052 -1.385654708152085 -2.711133018634686 Q -1.39740678262532 -2.71972887493732 -1.4090717774373211 -2.717624618290429 Q -1.4207367722493225 -2.7155203616435375 -1.4381033113760016 -2.7020146843646473 Q -1.440471475802367 -2.700173001099344 -1.4441548423329733 -2.7049093299520752 Q -1.4478382088635795 -2.7096456588048055 -1.4454700444372142 -2.7114873420701087 L -1.393545920777531 -2.750601091342889 L -1.3412708096771393 -2.7925214057434484 Q -1.331798151971678 -2.799888138804661 -1.326886662998065 -2.7992739107834215 Q -1.3219751740244516 -2.7986596827621826 -1.3146084409632388 -2.7891870250567212 L -1.280844247766014 -2.7457706772400234 Q -1.2778588529231663 -2.803831743520555 -1.2560175575269303 -2.847420249062892 Q -1.2341762621306942 -2.891008754605229 -1.1923386905982398 -2.9235451589589188 Q -1.1370815206497153 -2.9665177684826594 -1.0765208364522885 -2.9635760802701645 Q -1.0159601522548616 -2.960634392057669 -0.9570262877651603 -2.8848531304139784 L -0.8195139372891904 -2.7080301865787 Q -0.8010971046361587 -2.6843485423150466 -0.7898274710941614 -2.674744097519584 Q -0.778557837552164 -2.6651396527241213 -0.7691732603063512 -2.6661038673876543 Q -0.7597886830605384 -2.667068082051187 -0.7463690846444682 -2.6775042872212387 Q -0.7447903083602245 -2.678732076064774 -0.7411069418296183 -2.6739957472120435 M -0.16422780475492915 -2.854626802804801 Q -0.16250958173350438 -2.848878089066177 -0.16538393860281642 -2.8480189775554647 L -0.2928137598089848 -2.8099317005805484 Q -0.2985624735476089 -2.8082134775591236 -0.3137491915988212 -2.8031524900237725 Q -0.32893590965003355 -2.798091502488421 -0.37616635357387673 -2.8356386084588774 Q -0.42339679749771997 -2.8731857144293342 -0.47039037464085487 -2.908194337756912 L -0.5643775289271248 -2.9782115844120676 L -0.5825147371545218 -2.9446103689918477 L -0.5450002011867474 -2.819096785698554 Q -0.5364090860796236 -2.7903532170054333 -0.5276093042474456 -2.778371404133164 Q -0.5188095224152677 -2.766389591260895 -0.504299878733724 -2.7649859387986955 Q -0.4897902350521803 -2.763582286336496 -0.4629629042719343 -2.7716006604364782 Q -0.46104666635905955 -2.7721734014436197 -0.4593284433376348 -2.766424687704996 Q -0.45761022031621 -2.7606759739663715 -0.4595264582290848 -2.76010323295923 Q -0.4892281458786428 -2.7512257473485353 -0.5058025386416487 -2.747315567744269 L -0.5702828792265222 -2.729086862961463 L -0.6322742408913796 -2.709514661272924 Q -0.6492340116036812 -2.7034018732522123 -0.6798938182096766 -2.6942380171379465 Q -0.6818100561225513 -2.693665276130805 -0.6835282791439762 -2.699413989869429 Q -0.685246502165401 -2.705162703608053 -0.6833302642525262 -2.7057354446151947 Q -0.6555448145158429 -2.714040189218748 -0.6440420611217925 -2.7226967857991404 Q -0.6325393077277423 -2.731353382379533 -0.631901085247332 -2.7466779597657287 Q -0.6312628627669218 -2.7620025371519246 -0.6398539778740457 -2.790746105845045 L -0.7274833519667095 -3.083930506514876 Q -0.7360744670738335 -3.1126740752079964 -0.7448742489060114 -3.1246558880802655 Q -0.7536740307381893 -3.1366377009525346 -0.768183674419733 -3.1380413534147342 Q -0.7826933181012767 -3.139445005876934 -0.8085625299250854 -3.1317130022805224 Q -0.8114368867943974 -3.13085389076981 -0.8131551098158222 -3.1366026045084343 Q -0.8148733328372469 -3.1423513182470586 -0.8119989759679349 -3.143210429757771 L -0.765722895555371 -3.1559980949727318 Q -0.7268253962907352 -3.165536677202689 -0.7028724223798013 -3.172695939791959 Q -0.6770032105559927 -3.1804279433883704 -0.6392511933056401 -3.193799001444077 L -0.5935478539002177 -3.2085029045719127 Q -0.5916316159873429 -3.209075645579054 -0.5899133929659182 -3.2033269318404303 Q -0.5881951699444934 -3.197578218101806 -0.5901114078573682 -3.197005477094664 Q -0.6284361661148624 -3.1855506569518326 -0.6364034660203381 -3.1685573602670742 Q -0.644370765925814 -3.1515640635823163 -0.6320568342722697 -3.1103649484555103 L -0.5939695572973537 -2.982935127249342 L -0.5124016239969293 -3.132560232953891 Q -0.48418818897653376 -3.184828790274233 -0.49077471055866206 -3.2068655262722925 Q -0.49621575012650726 -3.2250697864446023 -0.5259174377760654 -3.2161923008339075 Q -0.52783367568894 -3.215619559826766 -0.5295518987103648 -3.2213682735653903 Q -0.5312701217317896 -3.227116987304014 -0.5293538838189149 -3.227689728311156 L -0.4888265171449751 -3.238759170504692 Q -0.451845255793214 -3.247725011727508 -0.42022733023078124 -3.257175238345344 Q -0.37902821510397494 -3.269489169998888 -0.3470249115922464 -3.28114200503317 Q -0.33773009253144365 -3.2849638290253154 -0.325274546097758 -3.288686645571736 Q -0.322400189228446 -3.289545757082448 -0.3206819662070212 -3.283797043343824 Q -0.31896374318559645 -3.2780483296052 -0.3218381000549085 -3.2771892180944873 Q -0.35920473935596536 -3.2660207684552263 -0.4083871321386536 -3.221053088504295 Q -0.45756952492134184 -3.176085408553364 -0.48578295994173737 -3.1238168512330216 L -0.5173551372264655 -3.0653258466126383 L -0.40412790003293186 -2.9833161352516098 Q -0.3197112834774315 -2.920875484635832 -0.27769033825752715 -2.893774005657263 Q -0.2356693930376228 -2.8666725266786948 -0.21278419736245524 -2.859944390316425 Q -0.1898990016872878 -2.8532162539541552 -0.16882038464566596 -2.859516405032713 Q -0.16594602777635392 -2.8603755165434253 -0.16422780475492915 -2.854626802804801 M 0.39296738378775836 -2.80924583191498 Q 0.3924872282625677 -2.8032650752177357 0.3904936426968197 -2.803425127059466 Q 0.3655738231249697 -2.8054257750810936 0.35169875008559887 -2.807542930756079 L 0.299945551297016 -2.8127010714239384 L 0.24005795840371086 -2.816505833892971 Q 0.2250260407397358 -2.8167094299230735 0.2001062211678858 -2.8187100779447007 Q 0.19811263560213782 -2.818870129786431 0.19859279112732847 -2.824850886483675 Q 0.19907294665251907 -2.830831643180919 0.20106653221826704 -2.830671591339189 Q 0.22399276622436903 -2.8288309951592914 0.23543764236117365 -2.8339314667270195 Q 0.24688251849797826 -2.839031938294747 0.2520300654820183 -2.85316532996296 Q 0.25717761246605825 -2.8672987216311725 0.2595783900920114 -2.8972025051173924 L 0.27550354834416707 -3.0955642689093184 Q 0.2830259849054868 -3.189262790499474 0.25845510356716306 -3.2268496471152917 Q 0.23388422222883926 -3.2644365037311087 0.1860381686508873 -3.268277747932634 Q 0.1461664573359273 -3.271478784767238 0.11017658790947221 -3.254303823379604 Q 0.07418671848301717 -3.23712886199197 0.04068176855786754 -3.1946739643885933 L 0.01835453663650355 -2.9165687779667473 Q 0.01595375901055046 -2.8866649944805274 0.01828215789806542 -2.8719314084058265 Q 0.02061055678558041 -2.8571978223311256 0.0305967254805668 -2.850376793464798 Q 0.040582894175553164 -2.8435557645984706 0.06251233539878115 -2.841795194339438 Q 0.06450592096452915 -2.841635142497708 0.06402576543933852 -2.835654385800464 Q 0.0635456099141479 -2.8296736291032203 0.0615520243483999 -2.8298336809449505 Q 0.03264503364505392 -2.8321544326500385 0.015779582257061053 -2.8345116660876193 L -0.04195437322876583 -2.840149962280669 L -0.0968580022077009 -2.843554595145376 Q -0.11288671265455 -2.8438382170963434 -0.14179370335789598 -2.8461589688014315 Q -0.14378728892364398 -2.8463190206431617 -0.14330713339845336 -2.8522997773404057 Q -0.14282697787326273 -2.85828053403765 -0.14083339230751474 -2.8581204821959196 Q -0.11790715830141274 -2.856279886016022 -0.10604391169403622 -2.8603435518404434 Q -0.09418066508665972 -2.8644072176648647 -0.08903311810261971 -2.8785406093330774 Q -0.08388557111857971 -2.8926740010012897 -0.08148479349262659 -2.92257778448751 L -0.056996861707904814 -3.2275963760469537 Q -0.0545960840819517 -3.2575001595331736 -0.05746289232133624 -3.27177536217687 Q -0.06032970056072079 -3.2860505648205667 -0.0703558822161397 -3.292373197295457 Q -0.08038206387155863 -3.2986958297703475 -0.10231150509478662 -3.30045640002938 Q -0.10530188344340861 -3.300696477791975 -0.10482172791821799 -3.3066772344892192 Q -0.10434157239302737 -3.3126579911864633 -0.10135119404440537 -3.312417913423868 L -0.03663968907846052 -3.306219435784762 L 0.03022545329496254 -3.3018544918696744 Q 0.042186966689450545 -3.300894180819293 0.04539565070648166 -3.2971253153562063 Q 0.04860433472351283 -3.2933564498931194 0.047644023673131586 -3.2813949364986312 L 0.04324259802555086 -3.2265713334405612 Q 0.08464186429282738 -3.2673892308941435 0.13018129107745058 -3.2848007388164326 Q 0.17572071786207372 -3.3022122467387223 0.22855073535439568 -3.2979708729328716 Q 0.29832623015557563 -3.2923690584723144 0.341017674293608 -3.2493145511889967 Q 0.3837091184316404 -3.206260043905679 0.37602663002859044 -3.110567936749775 L 0.3581008237548072 -2.887286353385999 Q 0.35570004612885403 -2.8573825698997792 0.35753004862493204 -2.842688996785511 Q 0.35936005112101005 -2.8279954236712426 0.3669342637796765 -2.8223712523899516 Q 0.374508476438343 -2.816747081108661 0.391453953747201 -2.815386640453954 Q 0.393447539312949 -2.815226588612224 0.39296738378775836 -2.80924583191498 M 0.8853378019128497 -2.6444482650461554 Q 0.8880683421103269 -2.6432056266313455 0.8873625481843823 -2.6380334070948117 Q 0.8866567542584377 -2.6328611875582784 0.8826018211901981 -2.633607858712199 L 0.7605287352877266 -2.6309317237664653 Q 0.7560595894145503 -2.6307682148545606 0.7515086890854217 -2.6328392788792434 Q 0.7342152678347329 -2.6407093221730396 0.7240043414959432 -2.662935140117579 Q 0.7137934151571533 -2.6851609580621183 0.7191890626716783 -2.7211593884153853 L 0.6500808105493524 -2.7141558544076827 Q 0.6153195780857211 -2.710198997370919 0.5910308569042602 -2.71356173782615 Q 0.5667421357227991 -2.7169244782813804 0.5439876340771559 -2.7272797984047963 Q 0.5084906115099526 -2.743434097797325 0.4944345787679787 -2.772903199303081 Q 0.4803785460260048 -2.8023723008088375 0.49404756858891374 -2.8324082429810864 Q 0.5068881655419495 -2.8606238250216838 0.5352808578073878 -2.8735216940673873 Q 0.563673550072826 -2.8864195631130913 0.6027349789725542 -2.88292603018617 L 0.7782634253908864 -2.867867328450407 L 0.827554749178346 -2.976178756283668 Q 0.8528217302794807 -3.0316997402990378 0.8530424379948849 -3.0623624422038658 Q 0.853263145710289 -3.0930251441086942 0.8277781038671688 -3.10462310264692 Q 0.7986523417607454 -3.117877912404892 0.7702569292327199 -3.0989385209848055 Q 0.7418615167046945 -3.079999129564719 0.7141201398242886 -3.0431831546519277 Q 0.6809122420237541 -2.9967694118199897 0.6381337789299448 -3.0162374136520116 Q 0.6153792772843016 -3.0265927337754275 0.6073593263915366 -3.04397607026983 Q 0.5993393754987715 -3.061359406764233 0.6088662700123141 -3.082293548278225 Q 0.6212926541604131 -3.109598950252997 0.6684721099843819 -3.1227366421413834 Q 0.7156515658083507 -3.13587433402977 0.773292651864141 -3.132165533912619 Q 0.8309337379199312 -3.128456733795468 0.8718918408820889 -3.1098171575733193 Q 0.9201313843708525 -3.087863878911678 0.9369561142756926 -3.0499933301484345 Q 0.9537808441805327 -3.0121227813851914 0.9309991399090177 -2.9620628777647764 L 0.8427718124575145 -2.7681945237438965 Q 0.824132236235366 -2.727236420781739 0.8223009950533658 -2.70389875689408 Q 0.8204697538713657 -2.6805610930064208 0.8293617278645675 -2.6699223525497584 Q 0.8382537018577693 -2.659283612093096 0.8564573031742838 -2.6509993559943634 Q 0.8655591038325411 -2.646857227944997 0.8831032289762617 -2.644366510590203 L 0.8853378019128497 -2.6444482650461554 M 0.723832598507108 -2.741019840951646 Q 0.7285578887984903 -2.7586457205513195 0.7376705705070963 -2.778669681999485 L 0.7695649564872171 -2.8487535470680663 L 0.6780346610682322 -2.8552500861861936 Q 0.6268901874197379 -2.858749059638289 0.6078363983926527 -2.8168807766103057 Q 0.5966526526593636 -2.792305914833011 0.6020646950385802 -2.772813357348536 Q 0.6074767374177968 -2.7533207998640608 0.6275006988659628 -2.7442081181554547 Q 0.6420635799191745 -2.737580713276469 0.6733476010314077 -2.738725275659803 L 0.723832598507108 -2.741019840951646 M 1.171071965525107 -2.393920479847038 Q 1.174117814474702 -2.3913276427568504 1.1726671707406129 -2.3873094798984353 Q 1.1712165270065236 -2.3832913170400203 1.1676357217492335 -2.383713020382863 Q 1.1150248640218394 -2.3851613467231254 1.0815265161269982 -2.395948407876015 Q 1.0480281682321566 -2.406735469028904 1.0175696787362072 -2.432663839930778 Q 0.9718819444922828 -2.4715563962835883 0.9614046894804334 -2.5224997680547685 Q 0.9509274344685842 -2.5734431398259487 0.9988949206370505 -2.6297913453934556 L 1.168725750044323 -2.829294451591925 Q 1.186227400403088 -2.849853932001691 1.183304468125924 -2.8641614987725683 Q 1.1803815358487602 -2.8784690655434457 1.1567762064893992 -2.898563552992398 Q 1.154491819777203 -2.9005081808100384 1.1603257032301246 -2.907361340946627 Q 1.166159586683046 -2.9142145010832157 1.1684439733952423 -2.912269873265575 Q 1.207278547502578 -2.879211200365686 1.2504747165197607 -2.871331417231678 Q 1.2936708855369432 -2.863451634097671 1.3253825039600158 -2.88373397264601 Q 1.3288500562524537 -2.8847219408131126 1.3318959052020487 -2.8821291037229253 Q 1.3349417541516435 -2.879536266632738 1.3362538269550197 -2.876449445458999 Q 1.3375658997583955 -2.8733626242852606 1.3362694812133018 -2.871839699810463 L 1.2889502043173824 -2.816252956480355 Q 1.3421393079704422 -2.7722879789120216 1.4173795079915008 -2.718744423736902 Q 1.4196638947036972 -2.7167997959192616 1.4166493542706666 -2.7101731417123767 Q 1.4136348138376362 -2.7035464875054918 1.407152721112168 -2.6959318651315045 Q 1.4006706283866994 -2.6883172427575173 1.391847522466609 -2.683352083956143 Q 1.3830244165465182 -2.678386925154769 1.3813882391068688 -2.6810930152098083 Q 1.3533780252196903 -2.7206963978682945 1.2714485539586176 -2.795693476070589 L 1.0899499576455018 -2.5824840495989423 Q 1.0128130542124274 -2.4918700433484924 1.0798217311035165 -2.43482762736437 Q 1.1209406919230485 -2.399824326646841 1.1689008317777627 -2.394455436154733 L 1.171071965525107 -2.393920479847038 M 1.257926539026991 -2.2299547336052674 Q 1.2565871945136105 -2.295196255324756 1.288011067703734 -2.3514616105065285 Q 1.3194349408938575 -2.407726965688301 1.3753666906868816 -2.4427646506159695 Q 1.4397729480243033 -2.483111075684193 1.5081997138281251 -2.4793657156709354 Q 1.5766264796319471 -2.4756203556576772 1.6338513033751183 -2.4388974806672437 Q 1.6910761271182893 -2.4021746056768105 1.7255829380319019 -2.347090306638226 Q 1.763274993029848 -2.286921303073003 1.7629705757677052 -2.2224200834711185 Q 1.7626661585055627 -2.1579188638692344 1.7315588620558233 -2.103031833455957 Q 1.7004515656060841 -2.0481448030426797 1.6487570695852587 -2.015761488185289 Q 1.591977869037795 -1.9801929292435654 1.5246688601655636 -1.9793284498407613 Q 1.4573598512933321 -1.9784639704379572 1.3962703594218255 -2.010995862219425 Q 1.3351808675503192 -2.0435277540008934 1.2969579385383176 -2.104544208320556 Q 1.2592658835403714 -2.164713211885779 1.257926539026991 -2.2299547336052674 M 1.423313297979927 -2.0497667207879786 Q 1.488238242959031 -2.0497277405328633 1.5704409661396879 -2.101222519896255 Q 1.626372715932712 -2.1362602048239228 1.6615175763913475 -2.1818764166717193 Q 1.6966624368499827 -2.227492628519516 1.7039802341018067 -2.275147112499318 Q 1.7112980313536306 -2.3228015964791195 1.6858160786789627 -2.363479232692228 Q 1.6550253858637392 -2.4126313764497342 1.5984215292289634 -2.4125729464082593 Q 1.5418176725941874 -2.4125145163667843 1.46215730167685 -2.36261235904556 Q 1.4019882981116272 -2.3249203040476134 1.3632953462650406 -2.276491433759347 Q 1.324602394418454 -2.228062563471081 1.3152171100138872 -2.180882944601855 Q 1.3058318256093204 -2.1337033257326294 1.3286594082137104 -2.09726294329172 Q 1.3583883530008227 -2.0498057010430935 1.423313297979927 -2.0497667207879786 M 1.5814928666748818 -1.3007200344794394 Q 1.575612170036163 -1.2995294854282196 1.575016895510553 -1.302469833747579 L 1.542475221443877 -1.4632088752058952 Q 1.5394988488158274 -1.4779106168026923 1.5906664587910222 -1.5275505774133369 Q 1.641834068766217 -1.5771905380239815 1.7342297433246887 -1.6499713000623455 Q 1.7271224733260597 -1.6699584637722518 1.7229555516467903 -1.690540902007768 L 1.7195823293350008 -1.7072028758174713 L 1.581385958325107 -1.679224973113805 Q 1.5510023590250597 -1.6730738030158356 1.5381736453231305 -1.665885332750617 Q 1.5253449316212013 -1.6586968624853982 1.5229246616123102 -1.645453286945384 Q 1.520504391603419 -1.6322097114053697 1.5260602871757785 -1.6047664604246816 Q 1.5264571368595183 -1.6028062282117754 1.5205764402207995 -1.6016156791605556 Q 1.5146957435820807 -1.6004251301093357 1.5142988938983406 -1.602385362322242 Q 1.5083461486422414 -1.6317888455158363 1.505953042436905 -1.6486492441674097 L 1.4934402692961999 -1.7154955642480938 L 1.4795625384681985 -1.7790046863256783 Q 1.4750107752080857 -1.796448351399965 1.4686611802682465 -1.8278120668064657 Q 1.4682643305845067 -1.8297722990193719 1.4741450272232255 -1.8309628480705917 Q 1.4800257238619443 -1.8321533971218116 1.4804225735456844 -1.8301931649089054 Q 1.4859784691180435 -1.8027499139282173 1.493458572594619 -1.791000528753676 Q 1.5009386760711945 -1.7792511435791352 1.5161424838241149 -1.7772277232539841 Q 1.5313462915770355 -1.775204302928833 1.5607497747706298 -1.7811570481849321 L 1.8606653033452927 -1.8418750497971443 Q 1.890068786538887 -1.8478277950532436 1.9028975002408162 -1.8550162653184625 Q 1.9157262139427453 -1.8622047355836813 1.9185373295839279 -1.876037581597857 Q 1.9213484452251106 -1.8898704276120328 1.9159909744946213 -1.9163335624862676 Q 1.9153956999690114 -1.9192739108056271 1.9212763966077302 -1.920464459856847 Q 1.927157093246449 -1.9216550089080668 1.927752367772059 -1.9187146605887073 L 1.9364950689172347 -1.8704905465306332 Q 1.9424718303791273 -1.8308890525887676 1.9472340265840067 -1.8073662660338918 Q 1.9510040985795363 -1.788744060011282 1.955159012155909 -1.7732606271499018 Q 1.9593139257322818 -1.7577771942885214 1.9626751399411746 -1.7462142258529536 Q 1.972163508042243 -1.7144656688656097 1.9779178284564725 -1.6860423017784685 Q 1.9933949661223305 -1.609593245475123 1.9770274819776708 -1.5644478640637947 Q 1.960659997833011 -1.5193024826524664 1.9145945408297131 -1.5099765150845776 Q 1.8763700126780405 -1.5022379462516486 1.8390655601183372 -1.520192829131268 Q 1.801761107558634 -1.5381477120108875 1.772447976280839 -1.5771058990155564 Q 1.6939723520545813 -1.5061229686569189 1.6517249994583998 -1.4577787735698775 Q 1.6094776468622185 -1.409434578482836 1.594754745513315 -1.3738047289761308 Q 1.5800318441644114 -1.3381748794694257 1.5867782887879907 -1.3048509318500188 Q 1.5873735633136006 -1.3019105835306592 1.5814928666748818 -1.3007200344794394 M 1.74296673156249 -1.6874501612581254 Q 1.7542769475490785 -1.631583543190296 1.7846153708912262 -1.6152792471578812 Q 1.8149537942333742 -1.598974951125466 1.866899947875391 -1.6094914677445749 Q 1.9688320229465182 -1.6301276512990521 1.9537517349644 -1.7046164753894915 Q 1.9495848132851306 -1.7251989136250074 1.942699984334165 -1.734007950480189 Q 1.9358151553831997 -1.7428169873353707 1.9217898885786022 -1.7440587163959385 Q 1.907764621774005 -1.7453004454565064 1.8793412546868637 -1.7395461250422772 L 1.7391846514640636 -1.7111713726548707 Q 1.7395935092507004 -1.7041121350678288 1.74296673156249 -1.6874501612581254" fill="#000000" fill-rule="nonzero"></path></g><g transform="matrix(1,0,0,1,0,0)"><g clip-path="url(#SvgjsClipPath1002)"><g clip-path="url(#SvgjsClipPath1000bdbdf4f1-daf6-4157-9a63-849600bbe620)"><path d=" M -0.6729273417966342 -0.9327739911737785 C -0.8193652139104519 -1.2140538101960112 -0.7749171828814975 -1.5568016402807996 -0.5615762674970884 -1.7914248292484385 L -0.5615762674970884 -2.2212760635784647 C -1.1491278104533527 -1.8685038162598464 -1.2715265407973342 -1.0749212369318548 -0.8241960991585309 -0.5631645846932543 C -0.7912966665292169 -0.6434980916215587 -0.8185283637930507 -0.5769575500553417 -0.6729273417966342 -0.9327739911737785 Z" fill="url(#gradient-c5f55e8a-7803-48b9-82ed-d5fdbf50722b_0)" transform="matrix(1,0,0,1,0,0)" fill-rule="nonzero"></path></g><g clip-path="url(#SvgjsClipPath1000bdbdf4f1-daf6-4157-9a63-849600bbe620)"><path d=" M 0.6729162720009987 -0.932829340151957 C 0.7721237804881786 -0.6902679781824086 0.7367225740451966 -0.7768559196448861 0.8240854012021734 -0.5630981659194398 C 1.2723346358787395 -1.0758953789477967 1.148009761094147 -1.8691347946110812 0.5615430581101795 -2.2211321562352 L 0.5615430581101795 -1.7914248292484385 C 0.774897156487885 -1.5568312967059033 0.8193555657687857 -1.214093682090535 0.6729162720009987 -0.9328293401519572 Z" fill="url(#gradient-c5f55e8a-7803-48b9-82ed-d5fdbf50722b_1)" transform="matrix(1,0,0,1,0,0)" fill-rule="nonzero"></path></g><g clip-path="url(#SvgjsClipPath1000bdbdf4f1-daf6-4157-9a63-849600bbe620)"><path d=" M 0.22896211803108546 -0.5591683884687648 C 0.07999714640221223 -0.51208304524834 -0.0798643088545814 -0.5120830452483396 -0.22882928048345774 -0.5591683884687648 L -0.5511595898038893 -0.3371636369947191 C -0.21069133259049644 -0.1380763799910154 0.21068026279486118 -0.1380763799910154 0.551148520008254 -0.3371636369947191 C 0.41437012513349436 -0.43143401662837544 0.4843090939598722 -0.38324719622615544 0.22896211803108546 -0.5591683884687648 Z" fill="url(#gradient-c5f55e8a-7803-48b9-82ed-d5fdbf50722b_2)" transform="matrix(1,0,0,1,0,0)" fill-rule="nonzero"></path></g><g clip-path="url(#SvgjsClipPath1000bdbdf4f1-daf6-4157-9a63-849600bbe620)"><path d=" M 0.8951202797964892 -0.18796493141669934 C 0.8951202797964892 -0.1956584393835139 0.0014446083304604507 -2.373419334795582 -0.000016604693452215713 -2.3765852963473937 C -0.0013117707828296243 -2.373419334795582 -0.8925299476177313 -0.18750000000000044 -0.8957069789651786 -0.18750000000000044 C -0.892518877822096 -0.18750000000000044 -0.7773376542325958 -0.2691065334264109 0.00007195367163315147 -0.8044971993472396 C 0.9474582735620956 -0.15195488621375386 0.8951202797964892 -0.19113089296851093 0.8951202797964892 -0.18796493141669934 Z" fill="url(#gradient-c5f55e8a-7803-48b9-82ed-d5fdbf50722b_3)" transform="matrix(1,0,0,1,0,0)" fill-rule="nonzero"></path></g></g></g></g><defs><clipPath id="SvgjsClipPath1002"><path d=" M -1.0943101824653472 -2.3765852963473932 h 2.1886203649306943 v 2.1890852963473932 h -2.1886203649306943 Z"></path></clipPath><clipPath id="SvgjsClipPath1000bdbdf4f1-daf6-4157-9a63-849600bbe620"><path d=" M -1.094310182465347 -2.3765852963473932 L 1.0943101824653472 -2.3765852963473932 L 1.0943101824653472 -0.1875 L -1.0943101824653467 -0.1875 Z"></path></clipPath><linearGradient id="gradient-c5f55e8a-7803-48b9-82ed-d5fdbf50722b_0" x1="0" x2="1" y1="0" y2="1"><stop stop-color="#b37f35" offset="0"></stop><stop stop-color="#563d19" offset="1"></stop></linearGradient><linearGradient id="gradient-c5f55e8a-7803-48b9-82ed-d5fdbf50722b_1" x1="0" x2="1" y1="0" y2="1"><stop stop-color="#6d4d20" offset="0"></stop><stop stop-color="#100b05" offset="1"></stop></linearGradient><linearGradient id="gradient-c5f55e8a-7803-48b9-82ed-d5fdbf50722b_2" x1="0" x2="1" y1="0" y2="1"><stop stop-color="#553d19" offset="0"></stop><stop stop-color="#171007" offset="1"></stop></linearGradient><linearGradient id="gradient-c5f55e8a-7803-48b9-82ed-d5fdbf50722b_3" x1="0" x2="1" y1="0" y2="1"><stop stop-color="#b27e35" offset="0"></stop><stop stop-color="#080602" offset="1"></stop></linearGradient></defs></svg>