<svg xmlns="http://www.w3.org/2000/svg" version="1.1" xmlns:xlink="http://www.w3.org/1999/xlink" xmlns:svgjs="http://svgjs.dev/svgjs" viewBox="0 0 9.156493092331065 1.5700879349349712"><g transform="matrix(1,0,0,1,1.6788231021173443,0.31404396746748564)"><g><path d=" M 0.74025 0.49949999999999994 Q 0.8145 0.5685 0.8145 0.6704999999999999 Q 0.8145 0.7484999999999999 0.7695 0.8114999999999999 Q 0.7245 0.8744999999999999 0.645 0.9112499999999999 Q 0.5655 0.948 0.468 0.948 Q 0.426 0.948 0.372 0.9434999999999999 Q 0.35100000000000003 0.942 0.32025 0.9405 Q 0.2895 0.939 0.252 0.939 L 0.14250000000000002 0.9405 Q 0.1125 0.942 0.0615 0.942 Q 0.057 0.942 0.057 0.9329999999999999 Q 0.057 0.9239999999999999 0.0615 0.9239999999999999 Q 0.105 0.9239999999999999 0.1275 0.91575 Q 0.15 0.9075 0.15975 0.8857499999999999 Q 0.1695 0.864 0.1695 0.8205 L 0.1695 0.1259999999999999 Q 0.1695 0.06299999999999994 0.1485 0.042749999999999955 Q 0.1275 0.022499999999999964 0.063 0.022499999999999964 Q 0.06 0.022499999999999964 0.06 0.013499999999999956 Q 0.06 0.0044999999999999485 0.063 0.0044999999999999485 L 0.14250000000000002 0.005999999999999894 Q 0.2115 0.008999999999999897 0.252 0.008999999999999897 Q 0.294 0.008999999999999897 0.339 0.0044999999999999485 Q 0.354 0.0029999999999998916 0.384 0.0014999999999999458 Q 0.41400000000000003 -1.1102230246251565e-16 0.4365 -1.1102230246251565e-16 Q 0.5730000000000001 -1.1102230246251565e-16 0.648 0.04949999999999988 Q 0.723 0.09899999999999998 0.723 0.1934999999999999 Q 0.723 0.26549999999999996 0.67575 0.32399999999999995 Q 0.6285000000000001 0.38249999999999995 0.54 0.4155 Q 0.666 0.4304999999999999 0.74025 0.49949999999999994 M 0.354 0.05324999999999991 Q 0.3375 0.0734999999999999 0.3375 0.1289999999999999 L 0.3375 0.4139999999999999 L 0.3975 0.4155 Q 0.47550000000000003 0.4155 0.5175 0.357 Q 0.5595 0.2985 0.5595 0.20699999999999996 Q 0.5595 0.12149999999999994 0.522 0.07724999999999993 Q 0.4845 0.03299999999999992 0.41400000000000003 0.03299999999999992 Q 0.3705 0.03299999999999992 0.354 0.05324999999999991 M 0.639 0.7064999999999999 Q 0.639 0.591 0.5835 0.5235 Q 0.528 0.45599999999999996 0.41550000000000004 0.45599999999999996 Q 0.372 0.45599999999999996 0.3375 0.45899999999999996 L 0.3375 0.8205 Q 0.3375 0.8699999999999999 0.357 0.89025 Q 0.3765 0.9105 0.4425 0.9105 Q 0.639 0.9105 0.639 0.7064999999999999 M 1.6154560546874999 0.8534999999999999 Q 1.6199560546875 0.8534999999999999 1.6222060546875001 0.861 Q 1.6244560546875 0.8684999999999999 1.6184560546875 0.8699999999999999 L 1.4534560546875 0.9494999999999999 Q 1.4474560546875002 0.9524999999999999 1.4399560546874999 0.9524999999999999 Q 1.4114560546875001 0.9524999999999999 1.3837060546875 0.9285 Q 1.3559560546875 0.9045 1.3409560546875001 0.852 L 1.2509560546875 0.9045 Q 1.2059560546875 0.9315 1.1707060546874999 0.942 Q 1.1354560546874999 0.9524999999999999 1.0979560546875 0.9524999999999999 Q 1.0394560546875 0.9524999999999999 1.0019560546875 0.9209999999999999 Q 0.9644560546875001 0.8895 0.9644560546875001 0.84 Q 0.9644560546875001 0.7935 0.9952060546875 0.75825 Q 1.0259560546875 0.723 1.0814560546875 0.7034999999999999 L 1.3304560546875 0.615 L 1.3304560546875 0.4364999999999999 Q 1.3304560546875 0.345 1.3117060546875 0.30299999999999994 Q 1.2929560546875 0.2609999999999999 1.2509560546875 0.2609999999999999 Q 1.2029560546875 0.2609999999999999 1.1759560546875 0.3044999999999999 Q 1.1489560546875 0.348 1.1339560546875 0.4155 Q 1.1174560546875 0.49949999999999994 1.0469560546875 0.49949999999999994 Q 1.0094560546875 0.49949999999999994 0.9877060546875001 0.48074999999999996 Q 0.9659560546875 0.46199999999999997 0.9659560546875 0.4275 Q 0.9659560546875 0.38249999999999995 1.0222060546875 0.33524999999999994 Q 1.0784560546875 0.2879999999999999 1.1594560546875 0.25725 Q 1.2404560546875 0.22649999999999992 1.3079560546875 0.22649999999999992 Q 1.3874560546875 0.22649999999999992 1.4339560546875 0.26774999999999993 Q 1.4804560546875 0.30899999999999994 1.4804560546875 0.39149999999999996 L 1.4804560546875 0.711 Q 1.4804560546875 0.7785 1.4924560546875 0.8114999999999999 Q 1.5044560546875 0.8444999999999999 1.5232060546875 0.8534999999999999 Q 1.5419560546875 0.8624999999999999 1.5719560546875 0.8624999999999999 Q 1.5869560546875001 0.8624999999999999 1.6124560546875 0.855 L 1.6154560546874999 0.8534999999999999 M 1.3349560546875 0.822 Q 1.3304560546875 0.7949999999999999 1.3304560546875 0.762 L 1.3304560546875 0.6465 L 1.2014560546875 0.6944999999999999 Q 1.1294560546875 0.7214999999999999 1.1294560546875 0.7905 Q 1.1294560546875 0.831 1.1489560546875 0.85425 Q 1.1684560546875 0.8775 1.2014560546875 0.8775 Q 1.2254560546875 0.8775 1.2674560546875 0.8564999999999999 L 1.3349560546875 0.822 M 2.462983154296875 0.9329999999999999 Q 2.462983154296875 0.942 2.459983154296875 0.942 Q 2.422483154296875 0.942 2.401483154296875 0.9405 L 2.3234831542968752 0.939 L 2.233483154296875 0.9405 Q 2.210983154296875 0.942 2.173483154296875 0.942 Q 2.1704831542968748 0.942 2.1704831542968748 0.9329999999999999 Q 2.1704831542968748 0.9239999999999999 2.173483154296875 0.9239999999999999 Q 2.207983154296875 0.9239999999999999 2.224483154296875 0.9149999999999999 Q 2.240983154296875 0.9059999999999999 2.246983154296875 0.88425 Q 2.2529831542968752 0.8624999999999999 2.2529831542968752 0.8174999999999999 L 2.2529831542968752 0.5189999999999999 Q 2.2529831542968752 0.3779999999999999 2.211733154296875 0.32475 Q 2.1704831542968748 0.27149999999999996 2.098483154296875 0.27149999999999996 Q 2.038483154296875 0.27149999999999996 1.986733154296875 0.3015 Q 1.934983154296875 0.3314999999999999 1.889983154296875 0.3989999999999999 L 1.889983154296875 0.8174999999999999 Q 1.889983154296875 0.8624999999999999 1.895233154296875 0.88425 Q 1.900483154296875 0.9059999999999999 1.916233154296875 0.9149999999999999 Q 1.931983154296875 0.9239999999999999 1.964983154296875 0.9239999999999999 Q 1.967983154296875 0.9239999999999999 1.967983154296875 0.9329999999999999 Q 1.967983154296875 0.942 1.964983154296875 0.942 Q 1.921483154296875 0.942 1.895983154296875 0.9405 L 1.808983154296875 0.939 L 1.726483154296875 0.9405 Q 1.702483154296875 0.942 1.658983154296875 0.942 Q 1.655983154296875 0.942 1.655983154296875 0.9329999999999999 Q 1.655983154296875 0.9239999999999999 1.658983154296875 0.9239999999999999 Q 1.693483154296875 0.9239999999999999 1.7107331542968751 0.9165 Q 1.727983154296875 0.9089999999999999 1.733983154296875 0.88725 Q 1.739983154296875 0.8654999999999999 1.739983154296875 0.8205 L 1.739983154296875 0.36149999999999993 Q 1.739983154296875 0.3164999999999999 1.733983154296875 0.2955 Q 1.727983154296875 0.27449999999999997 1.712233154296875 0.26625 Q 1.696483154296875 0.2579999999999999 1.663483154296875 0.2579999999999999 Q 1.658983154296875 0.2579999999999999 1.658983154296875 0.2489999999999999 Q 1.658983154296875 0.23999999999999988 1.663483154296875 0.23999999999999988 L 1.760983154296875 0.24149999999999994 L 1.861483154296875 0.23999999999999988 Q 1.879483154296875 0.23999999999999988 1.884733154296875 0.24524999999999997 Q 1.889983154296875 0.25049999999999994 1.889983154296875 0.26849999999999996 L 1.889983154296875 0.351 Q 1.946983154296875 0.2849999999999999 2.012983154296875 0.25349999999999995 Q 2.078983154296875 0.22199999999999998 2.158483154296875 0.22199999999999998 Q 2.2634831542968747 0.22199999999999998 2.332483154296875 0.2812499999999999 Q 2.401483154296875 0.3404999999999999 2.401483154296875 0.48449999999999993 L 2.401483154296875 0.8205 Q 2.401483154296875 0.8654999999999999 2.405983154296875 0.88725 Q 2.410483154296875 0.9089999999999999 2.422483154296875 0.9165 Q 2.434483154296875 0.9239999999999999 2.459983154296875 0.9239999999999999 Q 2.462983154296875 0.9239999999999999 2.462983154296875 0.9329999999999999 M 3.358509521484375 0.9329999999999999 Q 3.358509521484375 0.942 3.3540095214843753 0.942 L 3.154509521484375 0.942 Q 3.145509521484375 0.942 3.121509521484375 0.94275 Q 3.097509521484375 0.9434999999999999 3.045759521484375 0.86925 Q 2.994009521484375 0.7949999999999999 2.941509521484375 0.7244999999999999 L 2.836509521484375 0.5834999999999999 L 2.796009521484375 0.6239999999999999 L 2.796009521484375 0.8205 Q 2.796009521484375 0.8654999999999999 2.803509521484375 0.8865 Q 2.811009521484375 0.9075 2.831259521484375 0.91575 Q 2.851509521484375 0.9239999999999999 2.893509521484375 0.9239999999999999 Q 2.896509521484375 0.9239999999999999 2.896509521484375 0.9329999999999999 Q 2.896509521484375 0.942 2.893509521484375 0.942 Q 2.847009521484375 0.942 2.821509521484375 0.9405 L 2.721009521484375 0.939 L 2.623509521484375 0.9405 Q 2.596509521484375 0.942 2.548509521484375 0.942 Q 2.545509521484375 0.942 2.545509521484375 0.9329999999999999 Q 2.545509521484375 0.9239999999999999 2.548509521484375 0.9239999999999999 Q 2.592009521484375 0.9239999999999999 2.612259521484375 0.9165 Q 2.632509521484375 0.9089999999999999 2.640009521484375 0.88725 Q 2.647509521484375 0.8654999999999999 2.647509521484375 0.8205 L 2.647509521484375 0.36149999999999993 Q 2.647509521484375 0.3164999999999999 2.640009521484375 0.2955 Q 2.632509521484375 0.27449999999999997 2.612259521484375 0.26625 Q 2.592009521484375 0.2579999999999999 2.551509521484375 0.2579999999999999 Q 2.547009521484375 0.2579999999999999 2.547009521484375 0.2489999999999999 Q 2.547009521484375 0.23999999999999988 2.551509521484375 0.23999999999999988 L 2.623509521484375 0.24149999999999994 Q 2.683509521484375 0.24449999999999994 2.721009521484375 0.24449999999999994 Q 2.761509521484375 0.24449999999999994 2.821509521484375 0.24149999999999994 L 2.893509521484375 0.23999999999999988 Q 2.896509521484375 0.23999999999999988 2.896509521484375 0.2489999999999999 Q 2.896509521484375 0.2579999999999999 2.893509521484375 0.2579999999999999 Q 2.833509521484375 0.2579999999999999 2.8147595214843752 0.2789999999999999 Q 2.796009521484375 0.29999999999999993 2.796009521484375 0.36449999999999994 L 2.796009521484375 0.564 L 2.977509521484375 0.3839999999999999 Q 3.040509521484375 0.32099999999999995 3.040509521484375 0.2865 Q 3.040509521484375 0.2579999999999999 2.994009521484375 0.2579999999999999 Q 2.991009521484375 0.2579999999999999 2.991009521484375 0.2489999999999999 Q 2.991009521484375 0.23999999999999988 2.994009521484375 0.23999999999999988 L 3.057009521484375 0.24149999999999994 Q 3.114009521484375 0.24449999999999994 3.163509521484375 0.24449999999999994 Q 3.228009521484375 0.24449999999999994 3.279009521484375 0.24149999999999994 Q 3.2940095214843748 0.23999999999999988 3.313509521484375 0.23999999999999988 Q 3.318009521484375 0.23999999999999988 3.318009521484375 0.2489999999999999 Q 3.318009521484375 0.2579999999999999 3.313509521484375 0.2579999999999999 Q 3.255009521484375 0.2579999999999999 3.165009521484375 0.3015 Q 3.075009521484375 0.345 3.012009521484375 0.4079999999999999 L 2.941509521484375 0.4784999999999999 L 3.069009521484375 0.645 Q 3.163509521484375 0.7709999999999999 3.212259521484375 0.828 Q 3.2610095214843753 0.8849999999999999 3.291009521484375 0.9045 Q 3.321009521484375 0.9239999999999999 3.3540095214843753 0.9239999999999999 Q 3.358509521484375 0.9239999999999999 3.358509521484375 0.9329999999999999 M 4.18353369140625 0.9329999999999999 Q 4.18353369140625 0.942 4.18053369140625 0.942 Q 4.14303369140625 0.942 4.12203369140625 0.9405 L 4.04403369140625 0.939 L 3.95403369140625 0.9405 Q 3.93153369140625 0.942 3.89403369140625 0.942 Q 3.8910336914062498 0.942 3.8910336914062498 0.9329999999999999 Q 3.8910336914062498 0.9239999999999999 3.89403369140625 0.9239999999999999 Q 3.92853369140625 0.9239999999999999 3.94503369140625 0.9149999999999999 Q 3.96153369140625 0.9059999999999999 3.96753369140625 0.88425 Q 3.9735336914062502 0.8624999999999999 3.9735336914062502 0.8174999999999999 L 3.9735336914062502 0.5189999999999999 Q 3.9735336914062502 0.3779999999999999 3.93228369140625 0.32475 Q 3.8910336914062498 0.27149999999999996 3.81903369140625 0.27149999999999996 Q 3.75903369140625 0.27149999999999996 3.70728369140625 0.3015 Q 3.65553369140625 0.3314999999999999 3.61053369140625 0.3989999999999999 L 3.61053369140625 0.8174999999999999 Q 3.61053369140625 0.8624999999999999 3.61578369140625 0.88425 Q 3.62103369140625 0.9059999999999999 3.63678369140625 0.9149999999999999 Q 3.65253369140625 0.9239999999999999 3.68553369140625 0.9239999999999999 Q 3.68853369140625 0.9239999999999999 3.68853369140625 0.9329999999999999 Q 3.68853369140625 0.942 3.68553369140625 0.942 Q 3.64203369140625 0.942 3.61653369140625 0.9405 L 3.52953369140625 0.939 L 3.44703369140625 0.9405 Q 3.42303369140625 0.942 3.37953369140625 0.942 Q 3.37653369140625 0.942 3.37653369140625 0.9329999999999999 Q 3.37653369140625 0.9239999999999999 3.37953369140625 0.9239999999999999 Q 3.41403369140625 0.9239999999999999 3.43128369140625 0.9165 Q 3.44853369140625 0.9089999999999999 3.45453369140625 0.88725 Q 3.46053369140625 0.8654999999999999 3.46053369140625 0.8205 L 3.46053369140625 0.36149999999999993 Q 3.46053369140625 0.3164999999999999 3.45453369140625 0.2955 Q 3.44853369140625 0.27449999999999997 3.43278369140625 0.26625 Q 3.41703369140625 0.2579999999999999 3.38403369140625 0.2579999999999999 Q 3.37953369140625 0.2579999999999999 3.37953369140625 0.2489999999999999 Q 3.37953369140625 0.23999999999999988 3.38403369140625 0.23999999999999988 L 3.48153369140625 0.24149999999999994 L 3.58203369140625 0.23999999999999988 Q 3.60003369140625 0.23999999999999988 3.60528369140625 0.24524999999999997 Q 3.61053369140625 0.25049999999999994 3.61053369140625 0.26849999999999996 L 3.61053369140625 0.351 Q 3.66753369140625 0.2849999999999999 3.73353369140625 0.25349999999999995 Q 3.79953369140625 0.22199999999999998 3.87903369140625 0.22199999999999998 Q 3.9840336914062497 0.22199999999999998 4.05303369140625 0.2812499999999999 Q 4.12203369140625 0.3404999999999999 4.12203369140625 0.48449999999999993 L 4.12203369140625 0.8205 Q 4.12203369140625 0.8654999999999999 4.12653369140625 0.88725 Q 4.13103369140625 0.9089999999999999 4.14303369140625 0.9165 Q 4.15503369140625 0.9239999999999999 4.18053369140625 0.9239999999999999 Q 4.18353369140625 0.9239999999999999 4.18353369140625 0.9329999999999999 M 4.94706005859375 0.8534999999999999 Q 4.95156005859375 0.8534999999999999 4.95381005859375 0.861 Q 4.95606005859375 0.8684999999999999 4.95006005859375 0.8699999999999999 L 4.78506005859375 0.9494999999999999 Q 4.77906005859375 0.9524999999999999 4.77156005859375 0.9524999999999999 Q 4.74306005859375 0.9524999999999999 4.71531005859375 0.9285 Q 4.68756005859375 0.9045 4.67256005859375 0.852 L 4.58256005859375 0.9045 Q 4.53756005859375 0.9315 4.50231005859375 0.942 Q 4.46706005859375 0.9524999999999999 4.42956005859375 0.9524999999999999 Q 4.37106005859375 0.9524999999999999 4.33356005859375 0.9209999999999999 Q 4.29606005859375 0.8895 4.29606005859375 0.84 Q 4.29606005859375 0.7935 4.32681005859375 0.75825 Q 4.35756005859375 0.723 4.41306005859375 0.7034999999999999 L 4.66206005859375 0.615 L 4.66206005859375 0.4364999999999999 Q 4.66206005859375 0.345 4.64331005859375 0.30299999999999994 Q 4.62456005859375 0.2609999999999999 4.58256005859375 0.2609999999999999 Q 4.53456005859375 0.2609999999999999 4.50756005859375 0.3044999999999999 Q 4.48056005859375 0.348 4.46556005859375 0.4155 Q 4.44906005859375 0.49949999999999994 4.37856005859375 0.49949999999999994 Q 4.34106005859375 0.49949999999999994 4.31931005859375 0.48074999999999996 Q 4.29756005859375 0.46199999999999997 4.29756005859375 0.4275 Q 4.29756005859375 0.38249999999999995 4.35381005859375 0.33524999999999994 Q 4.41006005859375 0.2879999999999999 4.49106005859375 0.25725 Q 4.57206005859375 0.22649999999999992 4.63956005859375 0.22649999999999992 Q 4.71906005859375 0.22649999999999992 4.76556005859375 0.26774999999999993 Q 4.81206005859375 0.30899999999999994 4.81206005859375 0.39149999999999996 L 4.81206005859375 0.711 Q 4.81206005859375 0.7785 4.82406005859375 0.8114999999999999 Q 4.83606005859375 0.8444999999999999 4.85481005859375 0.8534999999999999 Q 4.87356005859375 0.8624999999999999 4.90356005859375 0.8624999999999999 Q 4.91856005859375 0.8624999999999999 4.94406005859375 0.855 L 4.94706005859375 0.8534999999999999 M 4.66656005859375 0.822 Q 4.66206005859375 0.7949999999999999 4.66206005859375 0.762 L 4.66206005859375 0.6465 L 4.53306005859375 0.6944999999999999 Q 4.46106005859375 0.7214999999999999 4.46106005859375 0.7905 Q 4.46106005859375 0.831 4.48056005859375 0.85425 Q 4.50006005859375 0.8775 4.53306005859375 0.8775 Q 4.55706005859375 0.8775 4.59906005859375 0.8564999999999999 L 4.66656005859375 0.822 M 5.487087158203125 0.855 Q 5.493087158203125 0.855 5.4953371582031245 0.861 Q 5.497587158203125 0.867 5.493087158203125 0.8699999999999999 Q 5.431587158203125 0.9195 5.382837158203125 0.93975 Q 5.334087158203125 0.96 5.274087158203125 0.96 Q 5.184087158203125 0.96 5.122587158203125 0.9119999999999999 Q 5.061087158203125 0.864 5.061087158203125 0.7529999999999999 L 5.061087158203125 0.36 Q 5.061087158203125 0.3194999999999999 5.043837158203125 0.30599999999999994 Q 5.026587158203125 0.2925 4.980087158203125 0.2925 Q 4.975587158203125 0.2925 4.975587158203125 0.2789999999999999 Q 4.975587158203125 0.26549999999999996 4.980087158203125 0.26549999999999996 Q 5.056587158203125 0.26549999999999996 5.113587158203125 0.23249999999999993 Q 5.170587158203125 0.1994999999999999 5.187087158203125 0.14549999999999996 Q 5.190087158203125 0.1409999999999999 5.196087158203125 0.1409999999999999 Q 5.202087158203125 0.1409999999999999 5.206587158203125 0.14324999999999988 Q 5.211087158203125 0.14549999999999996 5.211087158203125 0.14849999999999997 L 5.211087158203125 0.2579999999999999 Q 5.314587158203125 0.25649999999999995 5.452587158203125 0.24449999999999994 Q 5.457087158203125 0.24449999999999994 5.460087158203125 0.2549999999999999 Q 5.463087158203125 0.26549999999999996 5.463087158203125 0.28049999999999997 Q 5.463087158203125 0.2955 5.457837158203125 0.30974999999999997 Q 5.452587158203125 0.32399999999999995 5.448087158203125 0.3224999999999999 Q 5.377587158203125 0.3044999999999999 5.211087158203125 0.2985 L 5.211087158203125 0.7184999999999999 Q 5.211087158203125 0.8969999999999999 5.343087158203125 0.8969999999999999 Q 5.424087158203125 0.8969999999999999 5.484087158203125 0.8564999999999999 L 5.487087158203125 0.855 M 5.737594482421875 0.90975 Q 5.653594482421875 0.8594999999999999 5.607094482421875 0.7747499999999999 Q 5.560594482421875 0.69 5.560594482421875 0.591 Q 5.560594482421875 0.4769999999999999 5.619844482421875 0.3929999999999999 Q 5.679094482421875 0.30899999999999994 5.771344482421875 0.26549999999999996 Q 5.863594482421875 0.22199999999999998 5.961094482421875 0.22199999999999998 Q 6.067594482421875 0.22199999999999998 6.149344482421875 0.27374999999999994 Q 6.2310944824218755 0.3254999999999999 6.276094482421875 0.40874999999999995 Q 6.321094482421875 0.49199999999999994 6.321094482421875 0.5834999999999999 Q 6.321094482421875 0.6839999999999999 6.268594482421875 0.7702499999999999 Q 6.216094482421875 0.8564999999999999 6.126094482421875 0.90825 Q 6.036094482421875 0.96 5.928094482421875 0.96 Q 5.821594482421875 0.96 5.737594482421875 0.90975 M 6.098344482421875 0.843 Q 6.150094482421875 0.7605 6.150094482421875 0.615 Q 6.150094482421875 0.516 6.120094482421875 0.43499999999999994 Q 6.0900944824218755 0.354 6.035344482421875 0.30674999999999997 Q 5.980594482421875 0.25949999999999995 5.908594482421875 0.25949999999999995 Q 5.821594482421875 0.25949999999999995 5.776594482421875 0.3314999999999999 Q 5.731594482421875 0.40349999999999997 5.731594482421875 0.5445 Q 5.731594482421875 0.651 5.762344482421875 0.7387499999999999 Q 5.793094482421875 0.8264999999999999 5.845594482421875 0.8759999999999999 Q 5.898094482421875 0.9255 5.962594482421875 0.9255 Q 6.046594482421875 0.9255 6.098344482421875 0.843 M 7.219619384765625 0.9329999999999999 Q 7.219619384765625 0.942 7.215119384765625 0.942 L 6.969119384765625 0.942 Q 6.946619384765625 0.942 6.888869384765625 0.852 Q 6.831119384765625 0.762 6.751619384765625 0.6044999999999999 Q 6.720119384765625 0.609 6.688619384765625 0.609 L 6.663119384765625 0.609 L 6.663119384765625 0.8205 Q 6.663119384765625 0.867 6.669869384765625 0.8879999999999999 Q 6.676619384765625 0.9089999999999999 6.695369384765625 0.9165 Q 6.714119384765625 0.9239999999999999 6.756119384765625 0.9239999999999999 Q 6.759119384765625 0.9239999999999999 6.759119384765625 0.9329999999999999 Q 6.759119384765625 0.942 6.756119384765625 0.942 Q 6.711119384765625 0.942 6.685619384765625 0.9405 L 6.583619384765625 0.939 L 6.486119384765625 0.9405 Q 6.459119384765625 0.942 6.411119384765625 0.942 Q 6.408119384765625 0.942 6.408119384765625 0.9329999999999999 Q 6.408119384765625 0.9239999999999999 6.411119384765625 0.9239999999999999 Q 6.453119384765625 0.9239999999999999 6.472619384765625 0.9165 Q 6.492119384765625 0.9089999999999999 6.499619384765625 0.88725 Q 6.507119384765625 0.8654999999999999 6.507119384765625 0.8205 L 6.507119384765625 0.36149999999999993 Q 6.507119384765625 0.3164999999999999 6.500369384765625 0.2955 Q 6.493619384765625 0.27449999999999997 6.474119384765625 0.26625 Q 6.454619384765625 0.2579999999999999 6.414119384765625 0.2579999999999999 Q 6.409619384765625 0.2579999999999999 6.409619384765625 0.2489999999999999 Q 6.409619384765625 0.23999999999999988 6.414119384765625 0.23999999999999988 L 6.487619384765625 0.24149999999999994 Q 6.547619384765625 0.24449999999999994 6.583619384765625 0.24449999999999994 Q 6.612119384765625 0.24449999999999994 6.636119384765625 0.24299999999999988 Q 6.660119384765625 0.24149999999999994 6.678119384765625 0.23999999999999988 Q 6.727619384765625 0.23549999999999993 6.771119384765625 0.23549999999999993 Q 6.888119384765625 0.23549999999999993 6.949619384765625 0.2729999999999999 Q 7.011119384765625 0.3104999999999999 7.011119384765625 0.3809999999999999 Q 7.011119384765625 0.4394999999999999 6.973619384765625 0.48899999999999993 Q 6.936119384765625 0.5385 6.870119384765625 0.57 Q 6.951119384765625 0.7064999999999999 7.0096193847656245 0.7829999999999999 Q 7.068119384765625 0.8594999999999999 7.116119384765625 0.8917499999999999 Q 7.164119384765625 0.9239999999999999 7.215119384765625 0.9239999999999999 Q 7.219619384765625 0.9239999999999999 7.219619384765625 0.9329999999999999 M 6.699119384765625 0.5805 Q 6.784619384765625 0.5805 6.817619384765625 0.54075 Q 6.850619384765625 0.5009999999999999 6.850619384765625 0.4215 Q 6.850619384765625 0.26549999999999996 6.736619384765625 0.26549999999999996 Q 6.705119384765625 0.26549999999999996 6.690119384765625 0.2729999999999999 Q 6.675119384765625 0.28049999999999997 6.669119384765625 0.30074999999999996 Q 6.663119384765625 0.32099999999999995 6.663119384765625 0.36449999999999994 L 6.663119384765625 0.579 Q 6.673619384765625 0.5805 6.699119384765625 0.5805" fill="#000000" fill-rule="nonzero"></path></g><g></g><g clip-path="url(#SvgjsClipPath1001)"><g clip-path="url(#SvgjsClipPath100068f272e6-7a27-4667-845c-962a6c273651)"><path d=" M -1.1975896063740556 0.6286319237402426 C -1.2636799440757125 0.5016847210836004 -1.2436196595436202 0.34699577682464944 -1.1473346416052468 0.24110564357101466 L -1.1473346416052468 0.0471051925383424 C -1.4125083929755722 0.20631835659564712 -1.4677493856635861 0.5644780314451551 -1.26586021911546 0.7954440341553721 C -1.2510120477969482 0.7591879173120227 -1.2633022568963894 0.7892189932863058 -1.1975896063740556 0.6286319237402426 Z" fill="url(#gradient-c5f55e8a-7803-48b9-82ed-d5fdbf50722b_0)" transform="matrix(1,0,0,1,0,0)" fill-rule="nonzero"></path></g><g clip-path="url(#SvgjsClipPath100068f272e6-7a27-4667-845c-962a6c273651)"><path d=" M -0.590183491783903 0.628606943640447 C -0.5454091609102504 0.7380797329847316 -0.5613864327395232 0.6990008648644781 -0.521957843222131 0.7954740102751269 C -0.3196540070173979 0.5640383816887523 -0.37576430717829856 0.20603358345797723 -0.6404484485926311 0.04717014079781104 L -0.6404484485926311 0.24110564357101466 C -0.5441574809059698 0.3469823922874268 -0.5240925124614034 0.5016667261009101 -0.590183491783903 0.6286069436404469 Z" fill="url(#gradient-c5f55e8a-7803-48b9-82ed-d5fdbf50722b_1)" transform="matrix(1,0,0,1,0,0)" fill-rule="nonzero"></path></g><g clip-path="url(#SvgjsClipPath100068f272e6-7a27-4667-845c-962a6c273651)"><path d=" M -0.7905488722444969 0.7972475973606152 C -0.857779740451991 0.8184981535816016 -0.929928409446498 0.8184981535816017 -0.9971592776539935 0.7972475973606152 L -1.1426333868237122 0.89744277764081 C -0.9889732593504146 0.987294834745577 -0.798799838807544 0.987294834745577 -0.6451397113342464 0.89744277764081 C -0.7068705339491597 0.8548966716689257 -0.6753056798474262 0.8766443465509843 -0.7905488722444969 0.7972475973606152 Z" fill="url(#gradient-c5f55e8a-7803-48b9-82ed-d5fdbf50722b_2)" transform="matrix(1,0,0,1,0,0)" fill-rule="nonzero"></path></g><g clip-path="url(#SvgjsClipPath100068f272e6-7a27-4667-845c-962a6c273651)"><path d=" M -0.4898983831444431 0.9647791346498583 C -0.4898983831444431 0.9613069007782684 -0.8932320704643338 -0.021560105779832566 -0.8938915450989379 -0.02298896748814151 C -0.8944760794341552 -0.021560105779832573 -1.2967006503231204 0.9649889674881412 -1.2981345080513886 0.9649889674881412 C -1.2966956543031616 0.9649889674881412 -1.244712066628496 0.9281583083494928 -0.893851576939265 0.6865258030265499 C -0.46627720077771473 0.9810311875768827 -0.4898983831444431 0.9633502729415492 -0.4898983831444431 0.9647791346498583 Z" fill="url(#gradient-c5f55e8a-7803-48b9-82ed-d5fdbf50722b_3)" transform="matrix(1,0,0,1,0,0)" fill-rule="nonzero"></path></g></g></g><defs><clipPath id="SvgjsClipPath1001"><path d=" M -1.3877681021379997 -0.022988967488141387 h 0.9877681021379998 v 0.9879779349762827 h -0.9877681021379998 Z"></path></clipPath><clipPath id="SvgjsClipPath100068f272e6-7a27-4667-845c-962a6c273651"><path d=" M -1.3877681021379997 -0.022988967488141387 L -0.3999999999999999 -0.022988967488141387 L -0.3999999999999999 0.9649889674881413 L -1.3877681021379995 0.9649889674881413 Z"></path></clipPath><linearGradient id="gradient-c5f55e8a-7803-48b9-82ed-d5fdbf50722b_0" x1="0" x2="1" y1="0" y2="1"><stop stop-color="#b37f35" offset="0"></stop><stop stop-color="#563d19" offset="1"></stop></linearGradient><linearGradient id="gradient-c5f55e8a-7803-48b9-82ed-d5fdbf50722b_1" x1="0" x2="1" y1="0" y2="1"><stop stop-color="#6d4d20" offset="0"></stop><stop stop-color="#100b05" offset="1"></stop></linearGradient><linearGradient id="gradient-c5f55e8a-7803-48b9-82ed-d5fdbf50722b_2" x1="0" x2="1" y1="0" y2="1"><stop stop-color="#553d19" offset="0"></stop><stop stop-color="#171007" offset="1"></stop></linearGradient><linearGradient id="gradient-c5f55e8a-7803-48b9-82ed-d5fdbf50722b_3" x1="0" x2="1" y1="0" y2="1"><stop stop-color="#b27e35" offset="0"></stop><stop stop-color="#080602" offset="1"></stop></linearGradient></defs></svg>